<svg width="90" height="20" viewBox="0 0 90 20" fill="none" xmlns="http://www.w3.org/2000/svg">
<path d="M36.4824 18.2756C38.8305 18.2756 40.934 17.3891 42.157 15.5201V17.9881H44.3828V9.19455H35.7486V11.1833H41.8879C41.7656 14.5617 38.9773 16.0233 36.6292 16.0233C33.107 16.0233 30.3676 13.3158 30.3676 9.53C30.3676 5.74423 33.107 3.03669 36.6292 3.03669C38.9773 3.03669 41.3009 4.40244 41.9613 6.60681H44.4562C43.6979 3.10857 40.3959 0.7844 36.5313 0.7844C31.5416 0.7844 27.7993 4.57017 27.7993 9.53C27.7993 14.5138 31.5416 18.2756 36.4824 18.2756Z" fill="white"/>
<path fill-rule="evenodd" clip-rule="evenodd" d="M41.9613 6.60681C41.3009 4.40244 38.9773 3.03669 36.6292 3.03669C33.107 3.03669 30.3676 5.74423 30.3676 9.53C30.3676 13.3158 33.107 16.0233 36.6292 16.0233C38.9504 16.0233 41.7019 14.595 41.8827 11.2985C41.8848 11.2603 41.8865 11.2219 41.8879 11.1833H35.7486V9.19455H44.3828V17.9881H42.157V15.5201C42.1186 15.5787 42.0794 15.6363 42.0394 15.693C40.8019 17.4438 38.7569 18.2756 36.4824 18.2756C31.5416 18.2756 27.7993 14.5138 27.7993 9.53C27.7993 4.57017 31.5416 0.7844 36.5313 0.7844C40.3533 0.7844 43.6251 3.05764 44.4302 6.49162C44.4391 6.52987 44.4478 6.56827 44.4562 6.60681H41.9613ZM42.0394 15.8914C40.7671 17.5891 38.7282 18.3908 36.4824 18.3908C31.4737 18.3908 27.6817 14.5744 27.6817 9.53C27.6817 4.5093 31.4739 0.669205 36.5313 0.669205C40.4425 0.669205 43.7996 3.0233 44.5712 6.58289L44.6013 6.72201H41.8733L41.8485 6.63925C41.206 4.49463 38.9374 3.15189 36.6292 3.15189C33.1766 3.15189 30.4852 5.80318 30.4852 9.53C30.4852 13.2568 33.1766 15.9081 36.6292 15.9081C37.7802 15.9081 39.0375 15.5495 40.0198 14.7802C40.9754 14.0319 41.6759 12.8914 41.7649 11.2985H35.631V9.07936H44.5004V18.1033H42.0394V15.8914Z" fill="white"/>
<path d="M46.0282 17.988H48.2684L49.2032 15.2406H53.8599L54.7771 17.988H57.1584L52.8898 5.78885H50.3145L46.0282 17.988ZM49.8206 13.4781L51.5492 8.39802L53.2602 13.4781H49.8206Z" fill="white"/>
<path fill-rule="evenodd" clip-rule="evenodd" d="M45.7644 18.1724L50.1802 5.60459H53.0241L57.4218 18.1724H54.6407L53.7235 15.425H49.3388L48.4039 18.1724H45.7644ZM49.2032 15.2406H53.8599L54.7771 17.988H57.1584L52.8898 5.78885H50.3145L46.0282 17.988H48.2684L49.2032 15.2406ZM49.8206 13.4781H53.2602L51.5492 8.39802L49.8206 13.4781ZM50.0816 13.2938H53L51.5483 8.9836L50.0816 13.2938Z" fill="white"/>
<path d="M58.8634 17.988H60.9272V9.29654L66.1483 17.988H68.4767V5.78885H66.3953V14.2211L61.3153 5.78885H58.8634V17.988Z" fill="white"/>
<path fill-rule="evenodd" clip-rule="evenodd" d="M58.6753 18.1724V5.60459H61.4227L66.2072 13.5462V5.60459H68.6649V18.1724H66.0408L61.1154 9.9732V18.1724H58.6753ZM60.9272 9.29654L66.1483 17.988H68.4767V5.78885H66.3953V14.2211L61.3153 5.78885H58.8634V17.988H60.9272V9.29654Z" fill="white"/>
<path fill-rule="evenodd" clip-rule="evenodd" d="M12.9054 0.60555C12.9203 0.612373 12.9352 0.619207 12.9501 0.62605L21.5551 4.56887C22.0805 4.80957 22.5515 5.02535 22.9067 5.2275C23.2392 5.41673 23.7391 5.7345 24.0004 6.29039C24.3129 6.95532 24.2843 7.72616 23.9232 8.36706C23.6214 8.90287 23.0992 9.18419 22.7535 9.34924C22.3843 9.52556 21.8985 9.70722 21.3566 9.90987L18.5666 10.9534C17.8992 11.203 17.1516 10.8754 16.8968 10.2216C16.642 9.56781 16.9764 8.83545 17.6438 8.58582L20.3815 7.56186C20.7456 7.42565 21.026 7.32032 21.2466 7.2319C21.0332 7.12801 20.7613 7.00298 20.4082 6.84119L11.854 2.92163C11.6126 2.81101 11.4316 2.72852 11.2887 2.66676C11.2852 2.81975 11.2848 3.01532 11.2848 3.2764V12.1887C11.2848 12.8885 10.7057 13.4558 9.99131 13.4558C9.27691 13.4558 8.69778 12.8885 8.69778 12.1887V3.2764C8.69778 3.26025 8.69778 3.24413 8.69778 3.22803C8.69773 2.83673 8.69768 2.46149 8.72644 2.1531C8.75638 1.83204 8.82952 1.39525 9.11188 0.993094C9.47365 0.477848 10.0337 0.128798 10.6634 0.0260928C11.1549 -0.0540705 11.5898 0.0660849 11.8993 0.17555C12.1967 0.280694 12.5436 0.439719 12.9054 0.60555Z" fill="#623EF4"/>
<path fill-rule="evenodd" clip-rule="evenodd" d="M11.3106 19.3944C11.2957 19.3876 11.2808 19.3808 11.2658 19.374L2.66086 15.4311C2.13546 15.1904 1.66445 14.9747 1.30926 14.7725C0.976768 14.5833 0.476824 14.2655 0.215557 13.7096C-0.0969598 13.0447 -0.0683142 12.2738 0.292729 11.6329C0.594565 11.0971 1.11677 10.8158 1.46243 10.6508C1.83169 10.4744 2.31747 10.2928 2.85936 10.0901L5.64933 9.0466C6.31673 8.79697 7.06434 9.12461 7.31917 9.7784C7.57399 10.4322 7.23953 11.1645 6.57213 11.4142L3.8345 12.4381C3.47033 12.5743 3.18995 12.6797 2.96937 12.7681C3.1828 12.872 3.45462 12.997 3.80772 13.1588L12.3619 17.0784C12.6033 17.189 12.7844 17.2715 12.9273 17.3332C12.9307 17.1803 12.9311 16.9847 12.9311 16.7236V7.8113C12.9311 7.11147 13.5103 6.54415 14.2247 6.54415C14.9391 6.54415 15.5182 7.11147 15.5182 7.8113V16.7236C15.5182 16.7397 15.5182 16.7559 15.5182 16.772C15.5182 17.1633 15.5183 17.5385 15.4895 17.8469C15.4596 18.168 15.3864 18.6047 15.1041 19.0069C14.7423 19.5222 14.1823 19.8712 13.5526 19.9739C13.0611 20.0541 12.6262 19.9339 12.3166 19.8244C12.0193 19.7193 11.6724 19.5603 11.3106 19.3944Z" fill="white"/>
<path d="M79.2813 18.4082C80.7454 18.4082 81.7861 17.8898 82.474 17.0431V18.2008H84.5554V8.55903H82.474V9.71673C81.7861 8.90461 80.7454 8.36896 79.2813 8.36896C76.3885 8.36896 74.3953 10.5807 74.3953 13.3972C74.3953 16.1964 76.3885 18.4082 79.2813 18.4082ZM76.5473 13.3972C76.5473 11.4792 77.8349 10.2351 79.5106 10.2351C81.0982 10.2351 82.4211 11.5138 82.4211 13.3972C82.4211 15.2634 81.0805 16.542 79.5106 16.542C77.8349 16.542 76.5473 15.2806 76.5473 13.3972Z" fill="white"/>
<path fill-rule="evenodd" clip-rule="evenodd" d="M82.474 8.55903H84.5554V18.2008H82.474V17.0431C82.4359 17.09 82.3967 17.1359 82.3564 17.1808C81.6695 17.9457 80.6643 18.4082 79.2813 18.4082C76.3885 18.4082 74.3953 16.1964 74.3953 13.3972C74.3953 10.5807 76.3885 8.36896 79.2813 8.36896C80.6643 8.36896 81.6695 8.8469 82.3564 9.58435C82.3967 9.6276 82.4359 9.67174 82.474 9.71673V8.55903ZM82.3564 9.41646C81.6492 8.70559 80.6389 8.25376 79.2813 8.25376C76.3158 8.25376 74.2778 10.525 74.2778 13.3972C74.2778 16.2524 76.3161 18.5234 79.2813 18.5234C80.6372 18.5234 81.6483 18.0868 82.3564 17.3518V18.316H84.673V8.44383H82.3564V9.41646ZM77.4861 11.176C76.9778 11.7029 76.6649 12.4639 76.6649 13.3972C76.6649 15.2232 77.9061 16.4268 79.5106 16.4268C81.009 16.4268 82.3035 15.2064 82.3035 13.3972C82.3035 11.5698 81.0258 10.3503 79.5106 10.3503C78.7035 10.3503 77.9941 10.6494 77.4861 11.176ZM79.5106 10.2351C77.8349 10.2351 76.5473 11.4792 76.5473 13.3972C76.5473 15.2806 77.8349 16.542 79.5106 16.542C81.0805 16.542 82.4211 15.2634 82.4211 13.3972C82.4211 11.5138 81.0982 10.2351 79.5106 10.2351Z" fill="white"/>
<path d="M71.8494 18.1777C72.6961 18.1777 73.4016 17.4866 73.4016 16.6399C73.4016 15.8278 72.6961 15.1366 71.8494 15.1366C70.9851 15.1366 70.2972 15.8278 70.2972 16.6399C70.2972 17.4866 70.9851 18.1777 71.8494 18.1777Z" fill="white"/>
<path d="M87.5188 18.2008H89.6531V8.55898H86.0547V10.3906H87.5188V18.2008ZM87.0955 5.89798C87.0955 6.65827 87.7305 7.26304 88.5066 7.26304C89.2474 7.26304 89.8824 6.65827 89.8824 5.89798C89.8824 5.15497 89.2474 4.5502 88.5066 4.5502C87.7305 4.5502 87.0955 5.15497 87.0955 5.89798Z" fill="white"/>
<path fill-rule="evenodd" clip-rule="evenodd" d="M87.4012 18.316V10.5058H85.9372V8.44379H89.7707V18.316H87.4012ZM86.0547 10.3906V8.55898H89.6531V18.2008H87.5188V10.3906H86.0547ZM88.5066 7.37823C87.6674 7.37823 86.9779 6.72377 86.9779 5.89798C86.9779 5.08852 87.6684 4.435 88.5066 4.435C89.3114 4.435 90 5.0904 90 5.89798C90 6.72189 89.3124 7.37823 88.5066 7.37823ZM88.5066 7.26304C87.7305 7.26304 87.0955 6.65827 87.0955 5.89798C87.0955 5.15497 87.7305 4.5502 88.5066 4.5502C89.2474 4.5502 89.8824 5.15497 89.8824 5.89798C89.8824 6.65827 89.2474 7.26304 88.5066 7.26304Z" fill="white"/>
</svg>
